HIERARCHY
ROOT Hips
{
	OFFSET 0.00000 0.00000 0.00000
	CHANNELS 6 Xposition Yposition Zposition Zrotation Yrotation Xrotation 
	JOINT LHipJoint
	{
		OFFSET 0 0 0
		CHANNELS 3 Zrotation Yrotation Xrotation
		JOINT LeftUpLeg
		{
			OFFSET 1.24777 -1.64261 0.71711
			CHANNELS 3 Zrotation Yrotation Xrotation
			JOINT LeftLeg
			{
				OFFSET 2.49329 -6.85026 0.00000
				CHANNELS 3 Zrotation Yrotation Xrotation
				JOINT LeftFoot
				{
					OFFSET 2.36770 -6.50520 0.00000
					CHANNELS 3 Zrotation Yrotation Xrotation
					JOINT LeftToeBase
					{
						OFFSET 0.14820 -0.40718 2.21395
						CHANNELS 3 Zrotation Yrotation Xrotation
						End Site
						{
							OFFSET 0.00000 -0.00000 1.13491
						}
					}
				}
			}
		}
	}
	JOINT RHipJoint
	{
		OFFSET 0 0 0
		CHANNELS 3 Zrotation Yrotation Xrotation
		JOINT RightUpLeg
		{
			OFFSET -1.18320 -1.64261 0.71711
			CHANNELS 3 Zrotation Yrotation Xrotation
			JOINT RightLeg
			{
				OFFSET -2.46559 -6.77417 0.00000
				CHANNELS 3 Zrotation Yrotation Xrotation
				JOINT RightFoot
				{
					OFFSET -2.38450 -6.55136 0.00000
					CHANNELS 3 Zrotation Yrotation Xrotation
					JOINT RightToeBase
					{
						OFFSET -0.17454 -0.47954 2.02925
						CHANNELS 3 Zrotation Yrotation Xrotation
						End Site
						{
							OFFSET -0.00000 -0.00000 1.05076
						}
					}
				}
			}
		}
	}
	JOINT LowerBack
	{
		OFFSET 0 0 0
		CHANNELS 3 Zrotation Yrotation Xrotation
		JOINT Spine
		{
			OFFSET -0.02305 1.98660 0.00319
			CHANNELS 3 Zrotation Yrotation Xrotation
			JOINT Spine1
			{
				OFFSET -0.00718 1.99033 -0.00533
				CHANNELS 3 Zrotation Yrotation Xrotation
				JOINT Neck
				{
					OFFSET 0 0 0
					CHANNELS 3 Zrotation Yrotation Xrotation
					JOINT Neck1
					{
						OFFSET 0.00095 1.61015 0.10698
						CHANNELS 3 Zrotation Yrotation Xrotation
						JOINT Head
						{
							OFFSET -0.01060 1.59924 0.01317
							CHANNELS 3 Zrotation Yrotation Xrotation
							End Site
							{
								OFFSET -0.00458 1.63304 -0.00592
							}
						}
					}
				}
				JOINT LeftShoulder
				{
					OFFSET 0 0 0
					CHANNELS 3 Zrotation Yrotation Xrotation
					JOINT LeftArm
					{
						OFFSET 3.05381 1.47088 -0.01697
						CHANNELS 3 Zrotation Yrotation Xrotation
						JOINT LeftForeArm
						{
							OFFSET 4.25106 -0.00000 0.00000
							CHANNELS 3 Zrotation Yrotation Xrotation
							JOINT LeftHand
							{
								OFFSET 3.27592 -0.00000 0.00000
								CHANNELS 3 Zrotation Yrotation Xrotation
								JOINT LeftFingerBase
								{
									OFFSET 0 0 0
									CHANNELS 3 Zrotation Yrotation Xrotation
									JOINT LeftHandIndex1
									{
										OFFSET 0.65781 -0.00000 0.00000
										CHANNELS 3 Zrotation Yrotation Xrotation
										End Site
										{
											OFFSET 0.53034 -0.00000 0.00000
										}
									}
								}
								JOINT LThumb
								{
									OFFSET 0 0 0
									CHANNELS 3 Zrotation Yrotation Xrotation
									End Site
									{
										OFFSET 0.53844 -0.00000 0.53844
									}
								}
							}
						}
					}
				}
				JOINT RightShoulder
				{
					OFFSET 0 0 0
					CHANNELS 3 Zrotation Yrotation Xrotation
					JOINT RightArm
					{
						OFFSET -2.83695 1.31619 -0.22674
						CHANNELS 3 Zrotation Yrotation Xrotation
						JOINT RightForeArm
						{
							OFFSET -4.46073 -0.00000 0.00000
							CHANNELS 3 Zrotation Yrotation Xrotation
							JOINT RightHand
							{
								OFFSET -3.44416 -0.00000 0.00000
								CHANNELS 3 Zrotation Yrotation Xrotation
								JOINT RightFingerBase
								{
									OFFSET 0 0 0
									CHANNELS 3 Zrotation Yrotation Xrotation
									JOINT RightHandIndex1
									{
										OFFSET -0.61651 -0.00000 0.00000
										CHANNELS 3 Zrotation Yrotation Xrotation
										End Site
										{
											OFFSET -0.49705 -0.00000 0.00000
										}
									}
								}
								JOINT RThumb
								{
									OFFSET 0 0 0
									CHANNELS 3 Zrotation Yrotation Xrotation
									End Site
									{
										OFFSET -0.50464 -0.00000 0.50464
									}
								}
							}
						}
					}
				}
			}
		}
	}
}
MOTION
Frames: 10
Frame Time: 0.0208333
0.00 0.00 0.00 -10.8335 -5.7298 6.5845 0.0000 0.0000 0.0000 -8.0835 5.3678 -47.8998 3.6373 11.6614 34.5445 -0.5821 14.5704 -11.6109 4.5742 12.8876 38.9491 0.0000 0.0000 0.0000 24.5721 -4.0867 -6.2964 -5.3706 -13.7894 42.4002 1.2738 25.9753 -8.8804 -0.0283 -1.0855 2.9841 3.4117 1.6078 2.6839 3.7527 2.2497 1.0605 1.8738 1.1236 -0.4352 6.5425 1.7077 -9.3638 -4.3546 1.9956 15.3833 -2.3052 0.9989 6.3187 0.0000 0.0000 0.0000 -92.7940 23.8811 31.3588 27.2456 -38.4124 -9.6513 -0.0000 0.0000 -9.4535 7.9143 7.0606 0.9790 -7.1250 0.0000 -0.0000 -15.8548 36.6851 3.3464 0.0000 0.0000 0.0000 51.3795 7.9991 33.5436 -30.5484 41.3588 -11.7703 0.0000 0.0000 20.1700 3.7923 -14.9264 -0.9781 7.1250 -0.0000 -0.0000 28.0355 -42.9843 1.5252
0.00 0.00 0.00 -10.1671 -5.5698 7.5116 0.0000 0.0000 0.0000 -8.1747 1.8589 -46.3214 3.9162 12.0480 35.9020 -0.6556 15.4787 -12.4451 5.1952 13.6003 41.6591 0.0000 0.0000 0.0000 20.6921 -2.4525 -14.1391 -8.2343 -16.2889 53.4024 2.3160 25.9412 13.6819 -0.8477 -5.8724 16.4146 2.8686 1.6337 3.5868 3.7222 2.3206 1.0410 2.1145 1.1549 -0.9818 6.1414 1.8153 -9.7381 -4.9117 2.2974 16.0818 -2.3964 1.0754 6.6228 -0.0000 0.0000 0.0000 -93.1159 24.9683 30.6246 33.0940 -43.4021 -13.4866 -0.0000 0.0000 -12.3643 5.0556 11.0856 0.9745 -7.1250 0.0000 -0.0000 -19.2597 40.3299 2.3163 -0.0000 0.0000 0.0000 58.6497 11.7808 16.5034 -32.8630 43.2244 -13.3281 0.0000 0.0000 13.8714 -40.8771 -16.2345 13.6027 7.1250 -0.0000 -0.0000 -13.3085 -50.5643 1.8533
0.00 0.00 0.00 -8.0733 -6.8440 8.4505 0.0000 0.0000 0.0000 -9.3385 -2.2289 -44.5158 4.1121 12.3081 36.8307 -0.5804 15.6245 -14.4823 5.6656 14.0963 43.6244 0.0000 0.0000 0.0000 15.0137 4.6775 -23.2015 -11.6364 -18.2327 64.8317 -0.7538 19.8096 33.0798 -2.0679 -9.0062 25.8146 0.8899 2.1604 5.1078 3.1224 2.9724 1.4607 2.5229 1.4814 -1.4797 6.1221 2.0334 -10.1171 -6.0654 2.7436 15.1887 -2.7182 1.1909 6.4437 0.0000 -0.0000 0.0000 -90.7813 26.0658 31.0587 43.9416 -50.2393 -21.4220 -0.0000 0.0000 -8.7171 2.1650 11.5811 0.4348 -7.1250 0.0000 -0.0000 -21.8312 40.5396 2.5399 0.0000 -0.0000 0.0000 64.0906 11.9529 11.0249 -40.8689 48.5764 -19.0883 0.0000 0.0000 9.6623 -76.2631 -24.0584 59.0511 7.1250 -0.0000 -0.0000 -99.4448 -66.0269 74.3752
0.00 0.00 0.00 -3.6389 -5.1016 8.4866 0.0000 0.0000 0.0000 -13.8852 -8.4844 -39.8623 4.1907 12.4100 37.1982 -0.3085 14.1047 -15.9970 5.2723 13.6841 41.9863 0.0000 0.0000 0.0000 2.7338 23.6616 -40.1040 -15.3421 -19.4717 76.2651 -1.2717 10.5818 27.5167 -1.2285 -7.0293 19.8023 -2.4014 2.6401 9.0132 1.1247 3.3125 3.3789 2.1625 1.6323 -1.7443 5.4957 2.1457 -9.3429 -6.1096 2.9036 11.8006 -2.5976 1.2564 5.2509 0.0000 -0.0000 0.0000 -77.9318 22.7590 22.5472 82.9025 -59.8088 -53.8574 -0.0000 -0.0000 2.1204 37.9828 -5.3759 -4.1839 -7.1250 0.0000 -0.0000 8.3129 23.1875 -4.4133 0.0000 -0.0000 0.0000 74.6604 4.9587 15.7677 -62.3493 56.9041 -36.3027 0.0000 0.0000 3.3250 -52.1167 -22.8850 26.5579 7.1250 -0.0000 -0.0000 -29.9302 -61.9663 12.9798
0.00 0.00 0.00 -2.8316 3.0844 8.2441 0.0000 0.0000 0.0000 -15.6645 -10.5424 -38.4833 4.5941 12.9116 39.0383 0.0825 9.1507 -14.4185 3.8334 11.9354 35.5039 0.0000 0.0000 0.0000 -2.6288 30.9135 -47.6259 -13.1935 -18.8509 69.7255 -0.6406 2.2055 16.0762 -1.8702 -8.5904 24.5221 -1.7349 1.7767 10.1012 0.8457 2.2100 4.2371 1.6038 1.0798 -1.3543 4.7073 1.5357 -8.5738 -5.9038 2.1877 11.5363 -2.4576 0.9007 4.9844 -0.0000 0.0000 0.0000 -67.1523 7.0610 7.1033 95.8642 -59.8697 -65.0763 -0.0000 0.0000 -15.9611 49.8545 -6.9255 -8.1360 -7.1250 0.0000 -0.0000 16.3038 19.5093 -10.3469 -0.0000 0.0000 0.0000 79.5838 0.3812 21.3930 -59.9648 56.3005 -34.3118 0.0000 0.0000 7.0567 -40.6755 -13.7858 11.5734 7.1250 -0.0000 -0.0000 -12.8441 -47.4871 0.8008
0.00 0.00 0.00 -1.0656 18.1537 7.1472 0.0000 0.0000 0.0000 -18.6636 -14.8340 -34.9517 5.3790 13.7983 42.4355 0.4779 0.5834 -13.2830 2.6782 10.1550 29.4802 0.0000 0.0000 0.0000 -8.1185 35.8749 -53.8236 -9.6960 -17.2353 58.4675 -0.0119 6.6340 9.7541 -1.9832 -8.8311 25.2683 -2.7461 1.4108 10.7285 0.8381 1.6431 4.5080 2.2196 0.7972 -1.4158 3.6030 -0.1939 -7.8991 -4.3922 -0.1605 11.5179 -1.9585 -0.1883 4.7391 0.0000 -0.0000 0.0000 -54.8748 -22.7444 -2.8650 85.7955 -59.9331 -56.3596 -0.0000 0.0000 -51.2153 23.6059 14.2772 6.1512 -7.1250 0.0000 -0.0000 -3.6325 45.4690 -0.0421 0.0000 -0.0000 0.0000 85.1987 -5.2379 24.7790 -50.2010 53.0763 -26.3348 0.0000 0.0000 9.3894 -39.9605 -16.8294 13.6364 7.1250 -0.0000 -0.0000 -12.3796 -51.1008 1.8852
0.00 0.00 0.00 0.2767 46.8419 2.9892 0.0000 0.0000 0.0000 -22.4858 -13.8270 -25.9124 5.8182 14.2499 44.2478 -0.3494 -19.8032 -10.7983 1.5395 7.8327 22.2072 0.0000 0.0000 0.0000 2.9289 27.4720 -59.4734 -13.6228 -18.9956 71.0492 -0.1136 10.2426 16.2636 -2.5818 -9.9851 28.9284 -5.0685 -0.0127 9.5042 1.4399 -0.3552 4.2956 4.3862 -0.2218 -0.8096 0.2627 -4.0393 -7.1183 -0.0164 -5.4364 14.4863 -0.4156 -2.6046 5.5306 0.0000 -0.0000 0.0000 -60.4984 -42.6372 42.2200 58.4453 -55.8812 -33.0507 -0.0000 0.0000 -24.3217 -30.9820 28.1599 -15.8209 -7.1250 0.0000 -0.0000 -57.7379 49.4821 -9.1856 0.0000 -0.0000 0.0000 89.6705 -8.9438 26.7273 -35.2048 44.9578 -14.9579 0.0000 0.0000 11.6776 -37.7378 -18.2256 13.6072 7.1250 -0.0000 -0.0000 -10.0415 -52.3102 1.8219
0.00 0.00 0.00 7.2143 115.3730 6.0910 0.0000 0.0000 0.0000 -23.3596 6.5988 -14.6527 4.4806 12.7739 38.5277 1.3159 -0.7450 -21.4638 0.5042 4.5517 12.6343 0.0000 0.0000 0.0000 4.8441 7.5099 -38.0369 -9.7690 -17.2779 58.7134 1.8632 23.5761 13.0512 -3.0435 10.7652 -31.4920 -4.6729 -8.7387 -0.9955 2.4866 -11.6289 -0.3134 4.6985 -5.8621 1.6622 -5.8243 -9.6273 -6.4680 1.9646 -12.5282 25.7717 0.3661 -5.9541 9.7142 -0.0000 -0.0000 0.0000 -97.0552 4.5169 41.4338 18.2787 -28.5125 -4.6815 -0.0000 -0.0000 13.7557 13.3612 9.6523 2.2806 -7.1250 0.0000 -0.0000 -11.8543 39.6228 1.5970 -0.0000 -0.0000 0.0000 79.4025 -11.7076 41.8584 -29.1656 40.1674 -10.8674 0.0000 0.0000 9.6937 -28.6982 -17.1441 9.1670 7.1250 -0.0000 -0.0000 -0.7848 -49.3536 0.0843
0.00 0.00 0.00 6.5225 120.8360 4.9090 0.0000 0.0000 0.0000 -21.1951 1.7138 -13.6582 4.6531 12.9821 39.3015 1.3898 -3.1025 -21.4881 0.4838 4.4601 12.3747 0.0000 0.0000 0.0000 4.7337 7.7738 -32.2933 -10.9846 -17.9276 62.7317 -1.2569 13.9107 30.2499 -2.4953 -9.8294 28.4260 -4.2968 -7.8139 -1.3921 1.9782 -10.3754 -0.2706 4.0127 -5.2256 1.6147 -6.5064 -10.2715 -6.3645 2.9894 -13.5414 26.0576 0.6956 -6.3446 9.9799 -0.0000 0.0000 0.0000 -95.2899 4.7360 32.2863 15.2962 -24.5571 -3.3481 -0.0000 -0.0000 19.9647 13.6581 8.0808 1.9564 -7.1250 0.0000 -0.0000 -11.2915 38.0658 1.9577 -0.0000 0.0000 0.0000 76.9859 -10.0048 45.0414 -26.6367 37.8305 -9.2754 0.0000 0.0000 11.7928 -27.5291 -16.0302 8.1903 7.1250 -0.0000 -0.0000 0.1949 -47.9320 -0.0141
0.00 0.00 0.00 1.3364 137.8770 6.5730 0.0000 0.0000 0.0000 -16.7938 -14.6782 -26.3584 5.8236 14.2552 44.2697 0.2233 -16.8125 -13.9117 1.2469 7.0799 19.9524 0.0000 0.0000 0.0000 14.1818 4.3200 -22.6468 -7.8211 -15.9861 51.9157 0.4232 18.1267 -8.4172 -0.1389 -2.4024 6.6191 -0.1026 -3.2657 -1.2129 0.7644 -4.3571 0.1111 0.7528 -2.1794 0.8591 -7.2206 -10.5236 -6.6808 3.0826 -13.6196 20.3418 0.9205 -6.5671 8.1153 -0.0000 -0.0000 0.0000 -92.2404 4.9790 27.8469 19.6006 -30.1581 -5.3292 -0.0000 0.0000 -0.1340 9.4295 9.9618 1.6457 -7.1250 0.0000 -0.0000 -15.2676 39.6150 2.0827 -0.0000 -0.0000 0.0000 60.9616 -7.9546 67.4354 -28.6417 39.7003 -10.5310 0.0000 0.0000 13.3374 -33.1367 -16.0832 10.2511 7.1250 -0.0000 -0.0000 -5.3200 -48.9063 0.5139
